# xmcd
#
# Track frame offsets: 
#        150
#        12137
#        27224
#        46847
#        58835
#        75003
#        89421
#        105318
#        122271
#        136575
#        146580
#        156070
#        173408
#
# Disc length: 2498 seconds
#
# Revision: 3
# Processed by: cddbd v1.5.2PL0 Copyright (c) Steve Scherf et al.
# Submitted via: ExactAudioCopyFreeDBPlugin 1.0
#
DISCID=8609c00d
DTITLE=Steve Martin and The Steep Canyon Rangers - Rare Bird Alert
DYEAR=2011
DGENRE=Bluegrass
TTITLE0=Rare Bird Alert
TTITLE1=Yellow-Backed Fly
TTITLE2=Best Love (Featuring Paul McCartney)
TTITLE3=Northern Island
TTITLE4=Go Away, Stop, Turn Around, Come Back
TTITLE5=Jubilation Day
TTITLE6=More Bad Weather On the Way
TTITLE7=You (Featuring The Dixie Chicks)
TTITLE8=The Great Remember (For Nancy)
TTITLE9=Women Like To Slow Dance
TTITLE10=Hide Behind a Rock
TTITLE11=Atheists Don't Have No Songs
TTITLE12=King Tut
EXTD=YEAR: 2011
EXTT0=
EXTT1=
EXTT2=
EXTT3=
EXTT4=
EXTT5=
EXTT6=
EXTT7=
EXTT8=
EXTT9=
EXTT10=
EXTT11=
EXTT12=
PLAYORDER=
